# xmcd
#
# Track frame offsets:
#	150
#	16900
#	29418
#	44585
#	58599
#	74326
#	92277
#	105248
#	120708
#	133742
#	147956
#	162196
#	174276
#	190521
#	207222
#
# Disc length: 2963 seconds
# Revision: 1
# Processed by: cddbd v1.5.2PL0 Copyright (c) Steve Scherf et al.
# Submitted via: dBpowerAMP V12.0
#
DISCID=c30b910f
DTITLE=Jana Kramer - thirty one
DYEAR=2015
DGENRE=Country
TTITLE0=Boomerang
TTITLE1=Don't Touch My Radio
TTITLE2=I Got The Boy
TTITLE3=Pop That Bottle
TTITLE4=Love
TTITLE5=Circles
TTITLE6=Bullet
TTITLE7=Dance In The Rain
TTITLE8=Said No One Ever
TTITLE9=Just Like In The Movies
TTITLE10=Last Song
TTITLE11=Deal Breaker
TTITLE12=All I've Got
TTITLE13=Why Ya Wanna
TTITLE14=I Won't Give Up
EXTD=
EXTT0=
EXTT1=
EXTT2=
EXTT3=
EXTT4=
EXTT5=
EXTT6=
EXTT7=
EXTT8=
EXTT9=
EXTT10=
EXTT11=
EXTT12=
EXTT13=
EXTT14=
PLAYORDER=
